<svg xmlns="http://www.w3.org/2000/svg" xmlns:xlink="http://www.w3.org/1999/xlink" version="1.1" enable-background="new 0 0 184 108" xml:space="preserve" width="112" height="36"><rect id="backgroundrect" width="100%" height="100%" x="0" y="0" fill="none" stroke="none"/>

<g class="currentLayer" style=""><title>Layer 1</title><g id="svg_1" class="">
	<g id="svg_2">
		<path fill="#FFFFFF" d="M35.819,26.823 h0.16200000000000003 l0.24500000000000002,0.402 h0.15800000000000003 l-0.265,-0.41000000000000003 c0.138,-0.016000000000000004 0.24200000000000002,-0.08900000000000002 0.24200000000000002,-0.254 c0,-0.18500000000000003 -0.10900000000000001,-0.264 -0.32800000000000007,-0.264 h-0.35400000000000004 v0.928 h0.14 V26.823 zM35.819,26.704 v-0.28800000000000003 h0.19200000000000003 c0.09800000000000003,0 0.203,0.022000000000000006 0.203,0.137 c0,0.14200000000000002 -0.10600000000000001,0.15200000000000002 -0.22600000000000003,0.15200000000000002 H35.819 z" id="svg_3"/>
		<path fill="#FFFFFF" d="M36.894999999999996,26.762 c0,0.501 -0.40800000000000003,0.909 -0.91,0.909 c-0.502,0 -0.91,-0.40800000000000003 -0.91,-0.909 c0,-0.502 0.40800000000000003,-0.91 0.91,-0.91 C36.488,25.851999999999997 36.894999999999996,26.259999999999998 36.894999999999996,26.762 zM35.985,26.012999999999998 c-0.41400000000000003,0 -0.7490000000000001,0.3350000000000001 -0.7490000000000001,0.7500000000000001 c0,0.41300000000000003 0.3350000000000001,0.7460000000000001 0.7490000000000001,0.7460000000000001 c0.41300000000000003,0 0.7480000000000001,-0.3340000000000001 0.7480000000000001,-0.7460000000000001 C36.733000000000004,26.348 36.397999999999996,26.012999999999998 35.985,26.012999999999998 z" id="svg_4"/>
		<path fill="#FFFFFF" d="M30.938000000000002,27.524 c-1.2730000000000001,0 -2.432,0.22000000000000003 -3.286,0.5770000000000001 c-0.09400000000000003,0.04700000000000001 -0.16100000000000003,0.14500000000000002 -0.16100000000000003,0.257 c0,0.04100000000000001 0.010000000000000002,0.08200000000000002 0.026000000000000006,0.11800000000000002 c0.101,0.29300000000000004 -0.06500000000000002,0.6100000000000001 -0.8920000000000001,0.792 c-1.226,0.269 -2,1.5350000000000001 -2.443,1.955 c-0.52,0.49400000000000005 -1.9889999999999999,0.797 -1.7680000000000002,0.503 c0.17300000000000001,-0.23 0.8340000000000001,-0.9480000000000001 1.236,-1.7240000000000002 c0.36000000000000004,-0.6940000000000002 0.6800000000000002,-0.8910000000000001 1.121,-1.553 c0.129,-0.19400000000000003 0.6310000000000001,-0.8760000000000001 0.777,-1.415 c0.16400000000000003,-0.526 0.10900000000000001,-1.187 0.171,-1.459 c0.09000000000000002,-0.39300000000000007 0.461,-1.244 0.48800000000000004,-1.7240000000000002 c0.016000000000000004,-0.272 -1.135,0.38800000000000007 -1.681,0.38800000000000007 c-0.546,0 -1.078,-0.32800000000000007 -1.566,-0.35100000000000003 c-0.6040000000000001,-0.028000000000000004 -0.992,0.466 -1.5390000000000001,0.38000000000000006 c-0.31200000000000006,-0.05000000000000001 -0.5750000000000001,-0.32500000000000007 -1.12,-0.3450000000000001 c-0.776,-0.028000000000000004 -1.725,0.43200000000000005 -3.507,0.37400000000000005 c-1.7530000000000001,-0.05700000000000001 -3.372,-2.216 -3.593,-2.559 c-0.259,-0.402 -0.5750000000000001,-0.402 -0.92,-0.08600000000000002 c-0.3450000000000001,0.31600000000000006 -0.77,0.06700000000000002 -0.8910000000000001,-0.14500000000000002 c-0.23,-0.402 -0.8450000000000001,-1.577 -1.7970000000000002,-1.824 c-1.3170000000000002,-0.3410000000000001 -1.983,0.7290000000000001 -1.8970000000000002,1.58 c0.08800000000000002,0.8640000000000001 0.6460000000000001,1.107 0.905,1.566 c0.258,0.46 0.39100000000000007,0.7560000000000001 0.8780000000000001,0.9590000000000001 c0.3450000000000001,0.14500000000000002 0.47300000000000003,0.35700000000000004 0.37100000000000005,0.6400000000000001 c-0.09000000000000002,0.24700000000000003 -0.44900000000000007,0.30300000000000005 -0.6850000000000002,0.31500000000000006 c-0.502,0.024000000000000004 -0.8530000000000001,-0.11200000000000002 -1.11,-0.276 c-0.29800000000000004,-0.19100000000000003 -0.541,-0.455 -0.801,-0.903 c-0.30100000000000005,-0.49500000000000005 -0.776,-0.7100000000000001 -1.328,-0.7100000000000001 c-0.263,0 -0.51,0.06900000000000002 -0.7290000000000001,0.18200000000000002 c-0.8660000000000001,0.451 -1.8970000000000002,0.7180000000000001 -3.007,0.7180000000000001 l-1.252,0.0010000000000000002 C3.3400000000000034,30.873999999999995 10.070999999999998,36 18.000999999999998,36 c6.334,0 11.903,-3.271 15.112,-8.216 C32.418000000000006,27.625 31.683000000000007,27.524 30.938000000000002,27.524 z" id="svg_5"/>
		<path d="M21.927,26.119999999999997 c-0.016000000000000004,0 -0.031000000000000007,0.007000000000000002 -0.04200000000000001,0.018000000000000002 c-0.233,0.271 -0.3340000000000001,0.36000000000000004 -0.502,0.49500000000000005 c-0.406,0.32700000000000007 -0.8700000000000001,-0.04200000000000001 -1.167,-0.21700000000000003 c-0.6610000000000001,-0.38800000000000007 -1.193,-0.14300000000000002 -1.322,0.15700000000000003 c-0.129,0.30300000000000005 0.014000000000000002,0.6660000000000001 0.37400000000000005,0.6180000000000001 c0.504,-0.06500000000000002 0.526,0.013000000000000003 0.8910000000000001,0.24400000000000002 c0.6790000000000002,0.43000000000000005 1.174,0.19600000000000004 1.427,-0.007000000000000002 c0.21100000000000002,-0.16800000000000004 0.32800000000000007,-0.31100000000000005 0.43800000000000006,-0.516 c0.19500000000000003,-0.38500000000000006 0.036000000000000004,-0.6900000000000002 -0.05700000000000001,-0.78 C21.955,26.125999999999998 21.941000000000003,26.119999999999997 21.927,26.119999999999997 z" id="svg_6"/>
		<path d="M18.000999999999998,0 C8.058999999999997,0 0,8.058999999999997 0,18 c0,2.012 0.33000000000000007,3.948 0.9390000000000001,5.7540000000000004 h1.252 c1.11,0 2.141,-0.267 3.007,-0.7180000000000001 c0.21900000000000003,-0.11200000000000002 0.466,-0.18200000000000002 0.7290000000000001,-0.18200000000000002 c0.553,0 1.027,0.21500000000000002 1.328,0.7100000000000001 c0.26,0.44900000000000007 0.503,0.7130000000000001 0.801,0.902 c0.256,0.16400000000000003 0.6080000000000001,0.30000000000000004 1.11,0.277 c0.23600000000000002,-0.011000000000000003 0.5950000000000001,-0.06800000000000002 0.6850000000000002,-0.31500000000000006 c0.10300000000000001,-0.28300000000000003 -0.026000000000000006,-0.49700000000000005 -0.37100000000000005,-0.6400000000000001 c-0.48700000000000004,-0.203 -0.6190000000000001,-0.501 -0.8780000000000001,-0.9610000000000001 c-0.259,-0.459 -0.8180000000000001,-0.7020000000000001 -0.905,-1.566 c-0.08700000000000002,-0.8510000000000001 0.5800000000000001,-1.9220000000000002 1.8970000000000002,-1.58 c0.9520000000000001,0.24600000000000002 1.5670000000000002,1.4220000000000002 1.7970000000000002,1.8250000000000002 c0.12100000000000001,0.21200000000000002 0.546,0.46 0.8910000000000001,0.14500000000000002 c0.3440000000000001,-0.31700000000000006 0.6610000000000001,-0.31700000000000006 0.92,0.08600000000000002 c0.22100000000000003,0.3430000000000001 1.84,2.501 3.593,2.558 c1.782,0.05700000000000001 2.731,-0.403 3.507,-0.37400000000000005 c0.545,0.021000000000000005 0.808,0.29500000000000004 1.12,0.3450000000000001 c0.547,0.08600000000000002 0.935,-0.40800000000000003 1.5390000000000001,-0.37900000000000006 c0.48800000000000004,0.024000000000000004 1.02,0.35000000000000003 1.566,0.35000000000000003 c0.546,0 1.697,-0.6590000000000001 1.681,-0.38700000000000007 c-0.028000000000000004,0.48000000000000004 -0.3980000000000001,1.332 -0.48800000000000004,1.7240000000000002 c-0.06300000000000001,0.272 -0.008000000000000002,0.933 -0.171,1.46 c-0.14600000000000002,0.539 -0.6480000000000001,1.221 -0.777,1.416 c-0.44100000000000006,0.6610000000000001 -0.7610000000000001,0.8590000000000001 -1.121,1.552 c-0.402,0.776 -1.063,1.494 -1.236,1.7240000000000002 c-0.22100000000000003,0.29400000000000004 1.248,-0.009000000000000003 1.7680000000000002,-0.503 c0.44300000000000006,-0.42100000000000004 1.217,-1.685 2.443,-1.955 c0.8270000000000001,-0.18200000000000002 0.993,-0.49900000000000005 0.8920000000000001,-0.792 c-0.015000000000000003,-0.03400000000000001 -0.026000000000000006,-0.07600000000000001 -0.026000000000000006,-0.11700000000000002 c0,-0.11200000000000002 0.06700000000000002,-0.21000000000000002 0.16100000000000003,-0.258 c0.8540000000000001,-0.35500000000000004 2.013,-0.5760000000000001 3.286,-0.5760000000000001 c0.7440000000000001,0 1.48,0.09900000000000003 2.174,0.26 c1.827,-2.818 2.888,-6.177 2.888,-9.785 C36.001000000000005,8.058999999999997 27.942,0 18.000999999999998,0 z" id="svg_7"/>
		<path fill="#CC0000" d="M28.158,13.210999999999999 c-0.17800000000000002,0.5980000000000001 -0.43100000000000005,1.363 -1.556,1.94 c-0.16400000000000003,0.08400000000000002 -0.22700000000000004,-0.05400000000000001 -0.15100000000000002,-0.18300000000000002 c0.42500000000000004,-0.7230000000000001 0.501,-0.904 0.6250000000000001,-1.19 c0.17300000000000001,-0.41700000000000004 0.264,-1.011 -0.08000000000000002,-2.249 c-0.6770000000000002,-2.436 -2.089,-5.692 -3.116,-6.7490000000000006 c-0.99,-1.019 -2.785,-1.306 -4.408,-0.8900000000000001 c-0.5980000000000001,0.15300000000000002 -1.7670000000000001,0.7610000000000001 -3.934,0.273 c-3.7520000000000002,-0.8450000000000001 -4.308,1.034 -4.523,1.852 c-0.21600000000000003,0.8190000000000001 -0.7330000000000001,3.145 -0.7330000000000001,3.145 c-0.17200000000000001,0.9480000000000001 -0.3980000000000001,2.595 5.428,3.705 c2.714,0.517 2.8520000000000003,1.218 2.972,1.723 c0.21600000000000003,0.904 0.56,1.4220000000000002 0.9480000000000001,1.6800000000000002 c0.38800000000000007,0.259 0,0.47300000000000003 -0.43000000000000005,0.517 c-1.1560000000000001,0.12000000000000001 -5.428,-1.105 -7.955,-2.541 c-2.068,-1.264 -2.102,-2.401 -1.629,-3.367 c-3.123,-0.3380000000000001 -5.468,0.29300000000000004 -5.892,1.771 c-0.7290000000000001,2.537 5.579,6.872 12.762,9.047 c7.538,2.282 15.292,0.6890000000000002 16.154,-4.05 C33.028999999999996,15.493000000000002 31.215999999999994,13.901000000000003 28.158,13.210999999999999 zM16.6,8.570999999999998 c-2.079,0.15000000000000002 -2.295,0.37500000000000006 -2.684,0.79 c-0.549,0.5850000000000001 -1.2730000000000001,-0.7590000000000001 -1.2730000000000001,-0.7590000000000001 c-0.43400000000000005,-0.09100000000000003 -0.9600000000000001,-0.791 -0.6770000000000002,-1.445 c0.28,-0.6460000000000001 0.796,-0.453 0.9580000000000001,-0.251 c0.19700000000000004,0.24500000000000002 0.6170000000000001,0.6460000000000001 1.163,0.6320000000000001 c0.546,-0.014000000000000002 1.175,-0.129 2.053,-0.129 c0.8900000000000001,0 1.488,0.3320000000000001 1.522,0.6180000000000001 C17.692,8.270000000000003 17.590000000000003,8.499000000000002 16.6,8.570999999999998 zM21.097,6.500999999999998 c-0.37300000000000005,-0.009000000000000003 -0.7240000000000001,-0.06300000000000001 -1.026,-0.15000000000000002 c-0.036000000000000004,-0.009000000000000003 -0.06100000000000001,-0.04000000000000001 -0.06100000000000001,-0.07600000000000001 c0,-0.036000000000000004 0.026000000000000006,-0.06700000000000002 0.06200000000000001,-0.07600000000000001 c0.7200000000000001,-0.16700000000000004 1.206,-0.43900000000000006 1.171,-0.6960000000000002 c-0.04500000000000001,-0.3410000000000001 -0.987,-0.527 -2.103,-0.41500000000000004 c-0.12200000000000001,0.013000000000000003 -0.24100000000000002,0.028000000000000004 -0.35700000000000004,0.04600000000000001 c-0.003000000000000001,0 -0.006000000000000002,0.0010000000000000002 -0.009000000000000003,0.0010000000000000002 c-0.03200000000000001,0 -0.05800000000000001,-0.025000000000000005 -0.05800000000000001,-0.05500000000000001 c0,-0.022000000000000006 0.013000000000000003,-0.04100000000000001 0.03300000000000001,-0.05000000000000001 c0.403,-0.21300000000000002 1.004,-0.38200000000000006 1.693,-0.452 c0.20700000000000002,-0.021000000000000005 0.40800000000000003,-0.03200000000000001 0.6030000000000001,-0.03300000000000001 c0.03400000000000001,0 0.06800000000000002,0 0.10300000000000001,0 c1.154,0.026000000000000006 2.077,0.48500000000000004 2.064,1.024 C23.198,6.110999999999997 22.252000000000002,6.527000000000001 21.097,6.500999999999998 z" id="svg_8"/>
	</g>
	<g id="svg_9">
		<path fill="#FFFFFF" d="M45.176,19.136000000000003 c0,-1.6510000000000002 -0.03400000000000001,-2.865 -0.101,-3.963 h2.7 l0.11600000000000002,2.342 h0.08800000000000002 c0.6070000000000001,-1.7360000000000002 2.045,-2.621 3.376,-2.621 c0.30500000000000005,0 0.48200000000000004,0.011000000000000003 0.7310000000000001,0.06700000000000002 v2.9370000000000003 c-0.29200000000000004,-0.05700000000000001 -0.5640000000000001,-0.08900000000000002 -0.9390000000000001,-0.08900000000000002 c-1.486,0 -2.517,0.9450000000000001 -2.795,2.359 c-0.05300000000000001,0.275 -0.08100000000000002,0.6050000000000001 -0.08100000000000002,0.9410000000000001 v6.3950000000000005 h-3.12 L45.176,19.136000000000003 z" id="svg_10"/>
		<path fill="#FFFFFF" d="M55.851,22.177999999999997 c0.08200000000000002,2.235 1.812,3.212 3.809,3.212 c1.4340000000000002,0 2.46,-0.22500000000000003 3.403,-0.5710000000000001 l0.461,2.145 c-1.055,0.44800000000000006 -2.52,0.782 -4.309,0.782 c-4.005,0 -6.35,-2.473 -6.35,-6.251 c0,-3.404 2.065,-6.6240000000000006 6.031,-6.6240000000000006 c4.01,0 5.315,3.298 5.315,5.998 c0,0.5790000000000001 -0.05200000000000001,1.045 -0.11100000000000002,1.332 L55.851,22.177999999999997 zM61.274,20.006 c0.014000000000000002,-1.143 -0.48300000000000004,-3.005 -2.571,-3.005 c-1.92,0 -2.718,1.741 -2.858,3.005 H61.274 z" id="svg_11"/>
		<path fill="#FFFFFF" d="M101.132,24.573 c0,0.976 0.03900000000000001,1.986 0.18000000000000002,2.932 h-1.124 l-0.17900000000000002,-1.7690000000000001 h-0.05800000000000001 c-0.5980000000000001,0.9510000000000001 -1.9729999999999999,2.049 -3.935,2.049 c-2.483,0 -3.6390000000000002,-1.746 -3.6390000000000002,-3.392 c0,-2.849 2.515,-4.565 7.535,-4.5120000000000005 v-0.33000000000000007 c0,-1.221 -0.23700000000000002,-3.656 -3.157,-3.637 c-1.08,0 -2.205,0.28900000000000003 -3.098,0.92 l-0.38900000000000007,-0.8880000000000001 c1.127,-0.7640000000000001 2.505,-1.066 3.621,-1.066 c3.5620000000000003,0 4.243,2.6740000000000004 4.243,4.8790000000000004 V24.573 zM99.912,20.908 c-2.688,-0.07700000000000001 -6.236,0.33000000000000007 -6.236,3.293 c0,1.774 1.171,2.571 2.456,2.571 c2.057,0 3.226,-1.2730000000000001 3.652,-2.475 c0.08900000000000002,-0.263 0.128,-0.528 0.128,-0.7390000000000001 V20.908 z" id="svg_12"/>
		<path fill="#FFFFFF" d="M105.993,12.442 v2.72 h3.518 v0.99 h-3.518 v8.022 c0,1.569 0.48700000000000004,2.553 1.8130000000000002,2.553 c0.6360000000000001,0 1.086,-0.08400000000000002 1.4020000000000001,-0.19300000000000003 l0.14800000000000002,0.9450000000000001 c-0.3990000000000001,0.16700000000000004 -0.9580000000000001,0.29700000000000004 -1.703,0.29700000000000004 c-0.901,0 -1.6480000000000001,-0.28400000000000003 -2.13,-0.8750000000000001 c-0.559,-0.6480000000000001 -0.7500000000000001,-1.6840000000000002 -0.7500000000000001,-2.943 v-7.805 h-2.083 v-0.99 h2.083 v-2.269 L105.993,12.442 z" id="svg_13"/>
		<path fill="#FFFFFF" d="M111.053,26.848 h0.16200000000000003 l0.24500000000000002,0.402 h0.15800000000000003 l-0.265,-0.41000000000000003 c0.138,-0.017000000000000005 0.24200000000000002,-0.08900000000000002 0.24200000000000002,-0.254 c0,-0.18500000000000003 -0.11000000000000001,-0.264 -0.32800000000000007,-0.264 h-0.35400000000000004 v0.928 h0.14100000000000001 V26.848 zM111.053,26.728 V26.439999999999998 h0.19100000000000003 c0.09700000000000003,0 0.203,0.022000000000000006 0.203,0.136 c0,0.14300000000000002 -0.10600000000000001,0.15200000000000002 -0.22600000000000003,0.15200000000000002 H111.053 z" id="svg_14"/>
		<path fill="#FFFFFF" d="M112.13,26.786 c0,0.501 -0.40800000000000003,0.909 -0.91,0.909 c-0.501,0 -0.91,-0.40800000000000003 -0.91,-0.909 c0,-0.502 0.40900000000000003,-0.91 0.91,-0.91 C111.72200000000001,25.875999999999998 112.13,26.284 112.13,26.786 zM111.22,26.037 c-0.41500000000000004,0 -0.7490000000000001,0.3350000000000001 -0.7490000000000001,0.7490000000000001 c0,0.41300000000000003 0.3340000000000001,0.7460000000000001 0.7490000000000001,0.7460000000000001 c0.41300000000000003,0 0.7480000000000001,-0.3330000000000001 0.7480000000000001,-0.7460000000000001 C111.96799999999999,26.372 111.632,26.037 111.22,26.037 z" id="svg_15"/>
		<path fill="#FFFFFF" d="M74.529,16.5 h-0.05100000000000001 c-0.552,-0.911 -1.7680000000000002,-1.606 -3.456,-1.606 c-2.966,0 -5.548,2.454 -5.529,6.586 c0,3.791 2.332,6.302 5.277,6.302 c1.78,0 3.267,-0.8480000000000001 4.004,-2.23 h0.05500000000000001 l0.14,1.953 h2.778 c-0.05700000000000001,-0.8380000000000001 -0.10300000000000001,-2.196 -0.10300000000000001,-3.459 V10.439999999999998 l-3.117,-0.8950000000000001 V16.5 zM74.529,22.158 c0,0.32700000000000007 -0.023000000000000007,0.6310000000000001 -0.09400000000000003,0.91 c-0.31400000000000006,1.35 -1.417,2.219 -2.693,2.219 c-1.963,0 -3.087,-1.6550000000000002 -3.087,-3.9210000000000003 c0,-2.2880000000000003 1.114,-4.059 3.122,-4.059 c1.4020000000000001,0 2.406,0.988 2.6820000000000004,2.189 c0.05300000000000001,0.253 0.07,0.5640000000000001 0.07,0.8140000000000001 V22.158 z" id="svg_16"/>
		<path fill="#FFFFFF" d="M85.891,14.880000000000003 c-0.9390000000000001,0 -1.78,0.271 -2.487,0.7070000000000001 c-0.7340000000000001,0.43000000000000005 -1.331,1.093 -1.6860000000000002,1.78 h-0.04900000000000001 v-5.771 l-1.221,-0.35100000000000003 v16.26 h1.221 v-7.548 c0,-0.501 0.038000000000000006,-0.8490000000000001 0.16600000000000004,-1.216 c0.527,-1.5350000000000001 1.974,-2.795 3.723,-2.795 c2.527,0 3.401,2.026 3.401,4.249 v7.3100000000000005 h1.22 V20.060000000000002 C90.178,15.463000000000001 87.06,14.880000000000003 85.891,14.880000000000003 z" id="svg_17"/>
	</g>
</g></g></svg>